<?xml version="1.0" encoding="utf-8"?>
<!-- Generator: Adobe Illustrator 19.2.0, SVG Export Plug-In . SVG Version: 6.00 Build 0)  -->
<svg version="1.1" id="Layer_1" xmlns="http://www.w3.org/2000/svg" xmlns:xlink="http://www.w3.org/1999/xlink" x="0px" y="0px"
	 viewBox="0 0 478.4 185.5" style="enable-background:new 0 0 478.4 185.5;" xml:space="preserve">
<style type="text/css">
	.st0{fill:#FFFFFF;}
</style>
<g>
	<path class="st0" d="M369.4,71c-9.2,0-15.6-6.4-15.6-15.6c0.2-10.2,7.9-17.8,17.9-17.8c9.4,0,16,6.5,16,15.8
		C387.7,63.6,380,71,369.4,71"/>
	<path class="st0" d="M341.1,165.2c-1,0-1.9-0.4-2.5-1.2c-0.6-0.7-0.9-1.7-0.7-2.7l15.3-80.2c0.3-1.5,1.6-2.6,3.2-2.6h19
		c1,0,1.9,0.4,2.5,1.2c0.6,0.7,0.9,1.7,0.7,2.7l-15.3,80.2c-0.3,1.5-1.6,2.6-3.2,2.6H341.1z"/>
	<path class="st0" d="M300.6,96.9c-9.6,0-18.4,10.1-21.3,24.5l-1.6,7.1c-0.1,0.7-0.2,1.4-0.3,2.1c-0.3,2.3-0.7,4.6-0.6,7.4
		c0.2,6.1,3.7,9.6,9.7,9.6c15.2,0,25.3-21.5,25.3-35.8C312,102.5,307.7,96.9,300.6,96.9 M281.3,166.9c-25.5,0-30.8-13.2-30.8-24.3
		c0-5.6,1-11.1,1.9-15.8l17-85.1c0.3-1.5,1.6-2.6,3.2-2.6h19.1c1,0,1.9,0.4,2.5,1.2c0.6,0.8,0.9,1.7,0.7,2.7l-9.5,45.6h0.4
		c6.5-7.8,16.3-12.2,26.8-12.2c18.1,0,26.2,15.1,26.2,30.1c0,15.4-5.3,30.4-14.5,41.3C313.6,160.3,298.8,166.9,281.3,166.9"/>
	<path class="st0" d="M425.3,96.9c-7.1,0-13.6,5.6-17.3,14.9c-4.3,10.7-4.1,23.5,0.5,30.2c2.5,3.7,6,5.6,10.5,5.6
		c5.9,0,11-3.6,13.6-9.6c1.3-2.8,1.9-5.3,2.4-7.4c0.2-0.7,0.4-1.4,0.5-2.1l1.2-7.1c1.8-8.9,0.8-16.1-2.8-20.4
		C431.8,98.3,428.9,96.9,425.3,96.9 M416.6,166.9c-15.2,0-26.2-4.8-32.5-14.2c-7.5-11.1-7.8-28.4-0.7-46.2c6-15,20.2-30.1,38.3-30.1
		c10.5,0,18.5,4.5,21.9,12.2h0.4l9-46.8c0.3-1.5,1.6-2.6,3.2-2.6h19.1c1,0,1.9,0.4,2.5,1.2c0.6,0.7,0.9,1.7,0.7,2.7l-16.8,83.9
		c-0.9,4.6-2.1,10.2-4.4,15.8C450.8,158.5,436.8,166.9,416.6,166.9"/>
	<path class="st0" d="M194.3,52.4c0,0,1.2,0.6,1.1-0.8C193.3,21.6,170.6,0,134.5,0C84.4,0,27.4,41.5,7.1,92.7s4,92.7,54,92.7
		c50.1,0,107.1-41.5,127.3-92.7c2.5-6.2,4.3-12.3,5.1-16.7c0,0,0.3-1.5-0.9-2.1l-16.7-7.8c0,0-1.2-0.6-2.7,0.5
		c0,0,1.5-1.1-19.5,13.8c0,0-1.5,1.1-1.4,2.5c0.5,6.7-0.6,15.5-3.5,24.7c-12.4,39.1-53.5,70.8-91.8,70.8
		c-38.3,0-59.2-31.7-46.8-70.8c12.4-39.1,53.5-70.8,91.8-70.8c17.7,0,31.7,6.8,39.7,17c0,0,0.8,1,2.3-0.1l19.7-14
		c0,0,1.5-1.1,2.7-0.5L194.3,52.4z"/>
	<path class="st0" d="M189.5,165.2c-1,0-1.9-0.4-2.5-1.2c-0.6-0.7-0.9-1.7-0.7-2.7l9.1-47.9c2.4-12.6,11.8-29,30.6-34.2
		c7.2-2,14.9-3,22.7-3h1c1,0,1.9,0.4,2.5,1.2c0.6,0.8,0.9,1.7,0.7,2.7l-3.7,18.4c-0.3,1.5-1.6,2.6-3.2,2.6h-0.1c-0.5,0-0.9,0-1.4,0
		h0c-13.9,0-23.3,10.9-27.2,31.7l-5.6,29.7c-0.3,1.5-1.6,2.6-3.2,2.6H189.5z"/>
</g>
</svg>
